<svg width="122" height="128" viewBox="0 0 122 128" fill="none" xmlns="http://www.w3.org/2000/svg">
<g clip-path="url(#clip0_118_249)">
<path d="M61 0C48.9354 0 37.1416 3.75353 27.1102 10.7859C17.0788 17.8184 9.26032 27.8138 4.64338 39.5083C0.0264301 51.2027 -1.18157 64.071 1.17213 76.4858C3.52582 88.9006 9.33551 100.304 17.8665 109.255C26.3975 118.205 37.2667 124.301 49.0995 126.77C60.9324 129.24 73.1974 127.972 84.3437 123.128C95.49 118.284 105.017 110.081 111.72 99.5565C118.422 89.0318 122 76.658 122 64C121.982 47.0318 115.55 30.7639 104.114 18.7656C92.6781 6.76732 77.1728 0.0185286 61 0ZM61 122C50.0664 122 39.3784 118.598 30.2874 112.225C21.1965 105.852 14.1109 96.7938 9.92681 86.1956C5.74271 75.5975 4.64795 63.9357 6.78099 52.6848C8.91403 41.4339 14.1791 31.0993 21.9103 22.9878C29.6415 14.8764 39.4917 9.3524 50.2152 7.11445C60.9387 4.87651 72.0539 6.0251 82.1553 10.415C92.2566 14.8049 100.89 22.2389 106.965 31.7769C113.039 41.315 116.281 52.5287 116.281 64C116.264 79.3769 110.434 94.1186 100.07 104.992C89.7068 115.865 75.6561 121.981 61 122Z" fill="#212121" fill-opacity="0.8"/>
<path d="M70.6456 35.88C70.1094 35.3182 69.3827 35.0027 68.6249 35.0027C67.8672 35.0027 67.1404 35.3182 66.6043 35.88L41.8231 61.88C41.2876 62.4425 40.9868 63.205 40.9868 64C40.9868 64.795 41.2876 65.5575 41.8231 66.12L66.6043 92.12C67.1463 92.65 67.8633 92.9385 68.604 92.9247C69.3448 92.911 70.0516 92.5962 70.5755 92.0465C71.0994 91.4969 71.3995 90.7553 71.4125 89.9781C71.4256 89.2009 71.1506 88.4487 70.6456 87.88L47.8849 64L70.6456 40.12C71.181 39.5575 71.4818 38.795 71.4818 38C71.4818 37.205 71.181 36.4425 70.6456 35.88Z" fill="#212121" fill-opacity="0.8"/>
</g>
<defs>
<clipPath id="clip0_118_249">
<rect width="122" height="128" fill="white"/>
</clipPath>
</defs>
</svg>
