<svg width="122" height="128" viewBox="0 0 122 128" fill="none" xmlns="http://www.w3.org/2000/svg">
<g clip-path="url(#clip0_118_252)">
<path d="M61 0C48.9354 0 37.1416 3.75353 27.1102 10.7859C17.0788 17.8184 9.26032 27.8138 4.64338 39.5083C0.0264301 51.2027 -1.18157 64.071 1.17213 76.4858C3.52582 88.9006 9.33551 100.304 17.8665 109.255C26.3975 118.205 37.2667 124.301 49.0995 126.77C60.9324 129.24 73.1974 127.972 84.3437 123.128C95.49 118.284 105.017 110.081 111.72 99.5565C118.422 89.0318 122 76.658 122 64C121.982 47.0318 115.55 30.7639 104.114 18.7656C92.6781 6.76732 77.1728 0.0185286 61 0ZM61 122C50.0664 122 39.3784 118.598 30.2874 112.225C21.1965 105.852 14.1109 96.7938 9.92681 86.1956C5.74271 75.5975 4.64795 63.9357 6.78099 52.6848C8.91403 41.4339 14.1791 31.0993 21.9103 22.9878C29.6415 14.8764 39.4917 9.3524 50.2152 7.11445C60.9387 4.87651 72.0539 6.0251 82.1553 10.415C92.2566 14.8049 100.89 22.2389 106.965 31.7769C113.039 41.315 116.281 52.5287 116.281 64C116.264 79.3769 110.434 94.1186 100.07 104.992C89.7068 115.865 75.6561 121.981 61 122Z" fill="#212121" fill-opacity="0.8"/>
<path d="M55.3957 35.8799C54.8536 35.35 54.1367 35.0615 53.3959 35.0752C52.6551 35.0889 51.9484 35.4037 51.4245 35.9534C50.9006 36.503 50.6005 37.2446 50.5874 38.0218C50.5744 38.799 50.8493 39.5512 51.3544 40.1199L74.115 63.9999L51.3544 87.8799C51.0735 88.1545 50.8482 88.4857 50.6919 88.8537C50.5356 89.2217 50.4516 89.619 50.4448 90.0218C50.438 90.4246 50.5086 90.8247 50.6524 91.1983C50.7963 91.5718 51.0103 91.9112 51.2818 92.196C51.5534 92.4809 51.8768 92.7055 52.2328 92.8564C52.5889 93.0073 52.9702 93.0813 53.3542 93.0742C53.7381 93.0671 54.1167 92.979 54.4675 92.815C54.8182 92.651 55.1339 92.4146 55.3957 92.1199L80.1769 66.1199C80.7124 65.5574 81.0131 64.7949 81.0131 63.9999C81.0131 63.2049 80.7124 62.4424 80.1769 61.8799L55.3957 35.8799Z" fill="#212121" fill-opacity="0.8"/>
</g>
<defs>
<clipPath id="clip0_118_252">
<rect width="122" height="128" fill="white"/>
</clipPath>
</defs>
</svg>
