<svg width="100" height="100" viewBox="0 0 100 100" fill="none" xmlns="http://www.w3.org/2000/svg">
<path d="M10.7496 85.293C7.01573 70.915 5.53783 53.3035 5.12803 43.7431C5.00978 40.9842 7.23863 38.75 10 38.75H90C92.7615 38.75 94.99 40.9842 94.872 43.7431C94.462 53.3035 92.9845 70.915 89.2505 85.293C88.2505 89.1435 85.434 92.146 81.5215 92.868C75.665 93.948 65.5675 95 50 95C34.4326 95 24.3348 93.948 18.4784 92.868C14.5662 92.146 11.7495 89.1435 10.7496 85.293Z" fill="url(#paint0_linear_118_422)"/>
<path d="M10.7496 85.293C7.01573 70.915 5.53783 53.3035 5.12803 43.7431C5.00978 40.9842 7.23863 38.75 10 38.75H90C92.7615 38.75 94.99 40.9842 94.872 43.7431C94.462 53.3035 92.9845 70.915 89.2505 85.293C88.2505 89.1435 85.434 92.146 81.5215 92.868C75.665 93.948 65.5675 95 50 95C34.4326 95 24.3348 93.948 18.4784 92.868C14.5662 92.146 11.7495 89.1435 10.7496 85.293Z" stroke="#212121" stroke-width="1.5" stroke-linecap="round" stroke-linejoin="round"/>
<path d="M23.75 38.75V30C23.75 16.1928 34.9429 5 48.75 5H51.25C65.057 5 76.25 16.1929 76.25 30V38.75" stroke="#212121" stroke-width="1.5" stroke-linecap="round" stroke-linejoin="round"/>
<path d="M35 61.25V72.5M65 61.25V72.5" stroke="#212121" stroke-width="1.5" stroke-linecap="round" stroke-linejoin="round"/>
<defs>
<linearGradient id="paint0_linear_118_422" x1="50" y1="38.75" x2="50" y2="95" gradientUnits="userSpaceOnUse">
<stop stop-color="#F2C0C8"/>
<stop offset="1" stop-color="#F2C0C8" stop-opacity="0"/>
</linearGradient>
</defs>
</svg>
