<svg width="34" height="26" viewBox="0 0 34 26" fill="none" xmlns="http://www.w3.org/2000/svg">
<path d="M4.04762 0.481934C1.82182 0.481934 0 1.8007 0 3.41189V22.1636C0 23.7748 1.82182 25.0936 4.04762 25.0936H17.6735C17.761 25.104 17.8502 25.104 17.9376 25.0936H22.5307C22.6181 25.104 22.7073 25.104 22.7947 25.0936H29.9524C32.1782 25.0936 34 23.7748 34 22.1636V3.41189C34 1.8007 32.1782 0.481934 29.9524 0.481934H4.04762ZM4.04762 1.65392H29.9524C31.3031 1.65392 32.381 2.43417 32.381 3.41189V22.1636C32.381 23.1413 31.3031 23.9216 29.9524 23.9216H23.4762V15.7177H26.5688L27.7025 11.6158H23.4762V10.4438C23.4762 10.1171 23.5191 10.0916 23.6707 10.0203C23.8222 9.94907 24.2904 9.85779 25.0952 9.85779H27.5238V6.55816L27.0621 6.39907C27.0621 6.39907 25.2026 5.75585 22.6667 5.75585C20.8452 5.75585 19.3489 6.28117 18.3914 7.14758C17.4338 8.014 17 9.17414 17 10.4438V11.6158H14.5714V15.7177H17V23.9216H4.04762C2.69694 23.9216 1.61905 23.1413 1.61905 22.1636V3.41189C1.61905 2.43417 2.69694 1.65392 4.04762 1.65392ZM22.6667 6.92784C24.3497 6.92784 25.4088 7.19649 25.9048 7.33872V8.68581H25.0952C24.1636 8.68581 23.4171 8.7416 22.7884 9.03718C22.1598 9.33276 21.8571 9.89383 21.8571 10.4438V12.7877H25.7261L25.2407 14.5457H21.8571V23.9216H18.619V14.5457H16.1905V12.7877H18.619V10.4438C18.619 9.36947 18.9947 8.47864 19.6562 7.88007C20.3178 7.28151 21.25 6.92784 22.6667 6.92784Z" fill="#212121"/>
</svg>
