<svg width="34" height="26" viewBox="0 0 34 26" fill="none" xmlns="http://www.w3.org/2000/svg">
<path d="M11.3347 13.0007C11.3347 10.7346 13.8711 8.89708 17.0007 8.89708C20.1303 8.89708 22.668 10.7346 22.668 13.0007C22.668 15.2667 20.1303 17.1042 17.0007 17.1042C13.8711 17.1042 11.3347 15.2667 11.3347 13.0007ZM8.27103 13.0007C8.27103 16.4917 12.1793 19.3216 17.0007 19.3216C21.8221 19.3216 25.7303 16.4917 25.7303 13.0007C25.7303 9.50961 21.8221 6.67975 17.0007 6.67975C12.1793 6.67975 8.27103 9.50961 8.27103 13.0007ZM24.0359 6.42913C24.0357 6.72128 24.1551 7.00691 24.3791 7.2499C24.6032 7.49288 24.9218 7.6823 25.2945 7.79421C25.6672 7.90613 26.0774 7.9355 26.4732 7.87861C26.8689 7.82173 27.2325 7.68115 27.5179 7.47465C27.8033 7.26815 27.9977 7.00499 28.0766 6.71848C28.1556 6.43196 28.1154 6.13494 27.961 5.86497C27.8067 5.59501 27.5455 5.36424 27.21 5.20182C26.8745 5.03941 26.4801 4.95267 26.0767 4.95255C25.5359 4.95273 25.0164 5.10833 24.6339 5.38519C24.2514 5.66205 24.0363 6.03751 24.0359 6.42913ZM10.1324 23.0205C8.47492 22.9658 7.57401 22.766 6.97531 22.597C6.18158 22.3733 5.61525 22.1068 5.01982 21.6763C4.4244 21.2457 4.05582 20.8361 3.74818 20.2613C3.51479 19.828 3.23869 19.1755 3.16336 17.9754C3.08093 16.6778 3.06448 16.288 3.06448 13.0007C3.06448 9.71346 3.08229 9.32477 3.16336 8.02614C3.23884 6.82599 3.51696 6.17475 3.74818 5.74018C4.05718 5.16545 4.42521 4.7554 5.01982 4.32426C5.61444 3.89312 6.18022 3.62624 6.97531 3.40349C7.57373 3.23451 8.47492 3.0346 10.1324 2.98004C11.9244 2.92036 12.4627 2.90845 17.0007 2.90845C21.5386 2.90845 22.0775 2.92135 23.871 2.98004C25.5285 3.03469 26.4278 3.23608 27.0281 3.40349C27.8218 3.62624 28.3881 3.89372 28.9835 4.32426C29.5791 4.7548 29.9463 5.16545 30.2553 5.74018C30.4886 6.17348 30.7647 6.82599 30.8401 8.02614C30.9224 9.32477 30.9389 9.71346 30.9389 13.0007C30.9389 16.288 30.9224 16.6768 30.8401 17.9754C30.7645 19.1755 30.487 19.8278 30.2553 20.2613C29.9463 20.8361 29.5781 21.2461 28.9835 21.6763C28.3889 22.1064 27.8218 22.3733 27.0281 22.597C26.4297 22.766 25.5285 22.9659 23.871 23.0205C22.079 23.0801 21.5407 23.092 17.0007 23.092C12.4607 23.092 11.9239 23.0801 10.1324 23.0205ZM9.99164 0.765466C8.18182 0.825143 6.94512 1.03293 5.86509 1.33723C4.74659 1.65147 3.79973 2.07306 2.85353 2.75708C1.90734 3.4411 1.3266 4.1278 0.892604 4.93768C0.472347 5.72018 0.185375 6.61516 0.102956 7.9256C0.0191768 9.23811 0 9.65773 0 13.0007C0 16.3436 0.0191768 16.7632 0.102956 18.0757C0.185375 19.3863 0.472347 20.2812 0.892604 21.0637C1.3266 21.873 1.90748 22.5605 2.85353 23.2443C3.79958 23.928 4.74659 24.349 5.86509 24.6641C6.94716 24.9683 8.18182 25.1762 9.99164 25.2358C11.8053 25.2955 12.3838 25.3104 17.0007 25.3104C21.6176 25.3104 22.1971 25.2964 24.0097 25.2358C25.8196 25.1762 27.0555 24.9683 28.1363 24.6641C29.2542 24.349 30.2016 23.9283 31.1478 23.2443C32.0941 22.5603 32.6736 21.873 33.1088 21.0637C33.5291 20.2812 33.8173 19.3861 33.8984 18.0757C33.9807 16.7622 34 16.3436 34 13.0007C34 9.65773 33.9807 9.23811 33.8984 7.9256C33.816 6.61505 33.5291 5.71969 33.1088 4.93768C32.6736 4.12829 32.0926 3.4422 31.1478 2.75708C30.2031 2.07197 29.2542 1.65147 28.1376 1.33723C27.0555 1.03293 25.8196 0.824159 24.011 0.765466C22.1984 0.705788 21.6189 0.690918 17.002 0.690918C12.3852 0.690918 11.8053 0.704803 9.99164 0.765466Z" fill="#212121"/>
</svg>
