<svg width="34" height="26" viewBox="0 0 34 26" fill="none" xmlns="http://www.w3.org/2000/svg">
<path d="M16.5354 0.482477C15.4318 0.486659 14.325 0.530561 13.2088 0.620457C11.0743 0.793977 8.95883 1.08248 6.92871 1.69921C3.70014 2.6797 1.41072 4.34382 0.746669 6.76265C0.465236 7.78286 0.237559 8.81771 0.107911 9.85883C-0.141901 11.8804 0.0130451 13.9083 0.87948 15.9007C1.56251 17.4707 2.82105 18.8819 5.02509 19.7976C5.95793 20.1843 7.18801 20.3725 7.82993 20.569C8.01018 20.6254 8.05445 20.6589 8.06393 20.6672C8.07342 20.6735 8.09872 20.6881 8.09555 20.8136C8.07342 22.093 8.09555 24.5683 8.09555 24.5683L8.09872 25.1014H9.54383L9.77783 24.9509C9.77783 24.9509 13.4491 22.6157 14.7772 21.654C15.0175 21.4826 15.1409 21.3864 15.1662 21.376C15.1883 21.3655 15.1504 21.3592 15.397 21.355C17.1394 21.3321 18.8786 21.2881 20.6178 21.2254C22.9103 21.1418 25.2472 20.9976 27.4955 20.3766C29.4529 19.8352 31.0877 18.9509 32.0775 17.6254C33.0893 16.2665 33.6301 14.8261 33.8325 13.3355C34.1676 10.854 34.0507 8.36823 33.0135 5.91804C32.4032 4.4818 31.1762 3.26716 29.2947 2.41001C27.0433 1.38562 24.5041 1.00095 22.0186 0.756346C20.5672 0.614185 19.1062 0.520108 17.639 0.49084C17.2722 0.484568 16.9054 0.480387 16.5354 0.482477ZM17.5947 1.56123C18.9892 1.58632 20.3838 1.67621 21.7814 1.81419C24.1784 2.05043 26.4393 2.41001 28.3777 3.29225C29.9493 4.00723 30.9296 4.97309 31.4545 6.20445C32.4221 8.49576 32.5455 10.8435 32.2198 13.2414C32.0332 14.6233 31.5367 15.9258 30.6229 17.1529C29.8165 18.2359 28.558 18.9237 26.8694 19.3899C24.9088 19.9313 22.7775 20.0756 20.5324 20.1571C18.8122 20.2199 17.0888 20.2617 15.3654 20.2847C14.9322 20.2909 14.5084 20.3662 14.208 20.5125C13.9076 20.6589 13.7717 20.7948 13.5851 20.9286C12.6364 21.6143 10.7455 22.8206 9.71459 23.4812C9.70826 22.6826 9.69877 21.7167 9.71459 20.8261C9.72091 20.5523 9.62604 20.2721 9.38888 20.0505C9.15172 19.8289 8.82602 19.6951 8.51296 19.5989C7.59909 19.3188 6.40379 19.1056 5.8852 18.8902C4.07327 18.1376 3.04557 17.0087 2.43527 15.6038C1.63524 13.7662 1.48345 11.8742 1.72062 9.94872C1.8471 8.94942 2.06529 7.94802 2.3404 6.95498C2.91592 4.86229 4.72468 3.54521 7.60226 2.67134C9.4205 2.11942 11.3621 1.84764 13.408 1.68248C14.8025 1.56959 16.197 1.53405 17.5947 1.56123ZM17.9362 4.22884C17.269 4.22884 16.6208 4.27901 15.9915 4.371C15.5583 4.4379 15.2832 4.72431 15.3812 5.01281C15.4792 5.30131 15.9156 5.48111 16.352 5.4163C16.8611 5.33895 17.3923 5.29922 17.9362 5.29922C21.8889 5.29922 25.0764 7.40655 25.0764 10.0177C25.0764 10.3794 25.0163 10.7306 24.8993 11.0693C24.8013 11.3557 25.0732 11.6442 25.5096 11.709C25.946 11.7738 26.3792 11.5919 26.4773 11.3034C26.6195 10.8895 26.6954 10.4609 26.6954 10.0177C26.6954 6.82746 22.7649 4.22884 17.9362 4.22884ZM9.86005 5.30131C9.72723 5.29713 9.59126 5.30341 9.44896 5.32431C7.97855 5.53964 6.51763 6.24418 6.47652 7.50272C6.51763 7.67833 6.51447 7.86648 6.6125 8.02537C7.09315 8.80307 7.51055 9.60587 8.11136 10.3418C11.0364 13.9167 15.4602 16.4024 21.0984 17.9808C21.7719 18.169 22.4676 18.2087 23.1475 18.0205C24.0835 17.7634 24.8772 17.3662 25.4053 16.7954C26.1294 16.0115 26.1389 15.4679 24.9468 14.8888C24.1657 14.5083 23.3973 14.1174 22.6068 13.7453C21.402 13.1808 20.0992 13.0825 19.2011 14.0735C19.1537 14.1237 19.0841 14.1655 19.024 14.2073C18.5623 14.5313 17.9963 14.6108 17.3955 14.4477C15.1156 13.8268 13.3542 12.8254 12.2918 11.3348C11.6656 10.4588 11.8364 10.0198 13.0064 9.43653C13.1234 9.38008 13.2341 9.31945 13.3416 9.25464C13.8539 8.94523 13.9898 8.57729 13.6863 8.16126C13.0001 7.21212 12.0862 6.36543 10.9289 5.63581C10.6158 5.43929 10.2585 5.31595 9.86005 5.30131ZM17.9236 5.83442C17.5663 5.83442 17.2121 5.85323 16.8643 5.89296C16.5702 5.91804 16.3204 6.04766 16.2128 6.22954C16.1053 6.41352 16.1591 6.62048 16.3488 6.77101C16.5417 6.91944 16.8453 6.98843 17.1362 6.94662C17.3892 6.91944 17.6548 6.90481 17.9236 6.90481C20.5545 6.90481 22.6668 8.30133 22.6668 10.0407C22.6668 10.2184 22.6447 10.394 22.6036 10.5613C22.5403 10.7536 22.6447 10.9543 22.8692 11.0818C23.0969 11.2073 23.4099 11.2428 23.6882 11.1717C23.9633 11.1006 24.1594 10.9355 24.1973 10.7411C24.2574 10.5111 24.2859 10.2769 24.2859 10.0407C24.2859 7.72432 21.4273 5.83442 17.9236 5.83442ZM17.8097 7.44C17.5188 7.43791 17.2469 7.53826 17.0983 7.70551C16.9528 7.87276 16.9528 8.07763 17.0983 8.24488C17.2469 8.41213 17.5188 8.51248 17.8097 8.51039C19.16 8.51039 20.2383 9.22328 20.2383 10.116C20.2351 10.3083 20.3869 10.4881 20.6399 10.5864C20.8929 10.6825 21.2028 10.6825 21.4557 10.5864C21.7087 10.4881 21.8605 10.3083 21.8573 10.116C21.8573 8.64419 20.0359 7.44 17.8097 7.44Z" fill="#212121"/>
</svg>
