<svg width="40" height="26" viewBox="0 0 40 26" fill="none" xmlns="http://www.w3.org/2000/svg">
<path d="M3.1441 0.481934C1.10606 0.481934 -0.445822 2.41611 0.116231 4.3178C1.57964 9.27487 3.749 14.129 6.9871 17.9456C10.2252 21.7621 14.6046 24.5286 20.2049 25.0774C22.0691 25.26 23.6768 23.7933 23.6768 22.0145V18.4632C23.6768 18.2416 23.8336 18.0841 24.0124 18.0793C24.0455 18.0785 24.072 18.0776 24.0888 18.0776C24.7319 18.0776 26.0535 18.8552 27.2143 20.064C28.3752 21.2729 29.4019 22.7694 29.8959 23.5983V23.6C30.4549 24.5362 31.4964 25.1014 32.6041 25.1014H37.0349C39.2416 25.103 40.7183 22.6971 39.6384 20.8336C37.9428 17.9067 34.5603 15.0119 32.8687 13.5681C35.968 10.2833 38.0228 6.70356 38.9333 4.3298C39.6205 2.53633 38.2037 0.517927 36.2056 0.517927H33.0427C31.6679 0.517927 30.3861 1.16445 29.8622 2.19933C27.4006 7.06767 25.2065 8.85574 23.6608 10.1436V3.53794C23.6608 1.88996 22.244 0.531289 20.5424 0.528211L15.0034 0.519641C13.2396 0.517535 12.1459 2.62006 13.2027 3.98358L14.2717 5.36504L14.2735 5.36846C14.4567 5.60232 14.5541 5.88254 14.5541 6.1706V6.17232L14.5754 11.681C12.3724 9.43858 9.97888 4.68851 9.25667 2.56955V2.56784C8.83487 1.33006 7.62143 0.4943 6.28207 0.490503H6.2803L3.14588 0.481934H3.1441ZM3.1441 3.11459L6.27497 3.12316C6.46741 3.1236 6.60894 3.22382 6.66566 3.39054C7.56244 6.02253 9.91864 11.0373 12.9061 13.8458C13.6819 14.5752 14.8205 14.7231 15.7031 14.3771C16.5857 14.0311 17.3049 13.1345 17.3049 12.0821V12.0804L17.2819 6.1706C17.2819 5.30991 16.9899 4.47288 16.4543 3.78647L16.4525 3.78304L15.9642 3.15401L20.537 3.16087C20.7758 3.16132 20.9331 3.31147 20.9331 3.53794V10.2104C20.9331 12.3471 23.7211 13.5747 25.3976 12.1781H25.3994C26.9361 10.8969 29.6553 8.61045 32.3129 3.35455C32.3745 3.23281 32.3209 3.15059 33.0427 3.15059H36.2056C36.3897 3.15059 36.4436 3.23523 36.3743 3.41625C35.6007 5.43308 33.6269 8.95013 30.7004 11.993C29.7983 12.931 29.8351 14.4808 30.8549 15.3523C32.4535 16.717 35.9424 19.8482 37.2569 22.1174C37.3772 22.3249 37.2868 22.4689 37.0367 22.4687H32.6041C32.4516 22.4687 32.3262 22.3969 32.2596 22.2854C31.6689 21.2942 30.5856 19.7011 29.2157 18.2747C27.8459 16.8482 26.2152 15.4449 24.0888 15.4449C24.0285 15.4449 23.9792 15.4457 23.9414 15.4466H23.9378H23.9361C22.2437 15.4926 20.949 16.8788 20.949 18.4632V22.0145C20.949 22.2875 20.731 22.483 20.4802 22.4585C15.6396 21.9841 11.9912 19.6893 9.09684 16.2779C6.2025 12.8665 4.13538 8.32557 2.7392 3.59622C2.66114 3.33211 2.829 3.11459 3.1441 3.11459Z" fill="#212121"/>
</svg>
