<svg width="122" height="128" fill="none" xmlns="http://www.w3.org/2000/svg"><g clip-path="url('#clip0_118_252')" fill="#212121" fill-opacity=".8"><path d="M61 0C48.935 0 37.142 3.754 27.11 10.786 17.08 17.818 9.26 27.814 4.643 39.508.026 51.203-1.182 64.071 1.173 76.486c2.353 12.415 8.163 23.818 16.694 32.769 8.53 8.95 19.4 15.046 31.232 17.515 11.833 2.47 24.098 1.202 35.245-3.642 11.146-4.844 20.673-13.047 27.376-23.572C118.422 89.032 122 76.659 122 64c-.018-16.968-6.45-33.236-17.886-45.234C92.678 6.767 77.173.019 61 0Zm0 122c-10.934 0-21.622-3.402-30.713-9.775-9.09-6.373-16.176-15.431-20.36-26.03-4.184-10.597-5.279-22.26-3.146-33.51 2.133-11.251 7.398-21.586 15.13-29.697 7.73-8.112 17.58-13.636 28.304-15.874 10.724-2.237 21.839-1.089 31.94 3.301 10.102 4.39 18.735 11.824 24.81 21.362 6.074 9.538 9.316 20.752 9.316 32.223-.017 15.377-5.847 30.119-16.211 40.992C89.707 115.865 75.656 121.981 61 122Z"/><path d="M55.396 35.88a2.786 2.786 0 0 0-2-.805 2.795 2.795 0 0 0-1.971.878 3.074 3.074 0 0 0-.838 2.069c-.013.777.262 1.53.767 2.098L74.115 64l-22.76 23.88c-.281.275-.507.606-.663.974a3.125 3.125 0 0 0-.04 2.344c.144.374.358.713.63.998.271.285.595.51.95.66a2.742 2.742 0 0 0 2.236-.041c.35-.164.666-.4.928-.695l24.78-26a3.076 3.076 0 0 0 .837-2.12c0-.795-.3-1.558-.836-2.12l-24.781-26Z"/></g><defs><clipPath id="clip0_118_252"><path fill="#fff" d="M0 0h122v128H0z"/></clipPath></defs></svg>